<svg width="156" height="56" viewBox="0 0 156 56" fill="none" xmlns="http://www.w3.org/2000/svg">
<g clip-path="url(#clip0_0_1830)">
<mask id="mask0_0_1830" style="mask-type:luminance" maskUnits="userSpaceOnUse" x="0" y="0" width="156" height="56">
<path d="M0 0V56H156V0H0Z" fill="white"/>
</mask>
<g mask="url(#mask0_0_1830)">
<path d="M0.5 46V10C0.5 4.7533 4.7533 0.5 10 0.5H146C151.247 0.5 155.5 4.75329 155.5 10V46C155.5 51.2467 151.247 55.5 146 55.5H10C4.7533 55.5 0.5 51.2467 0.5 46Z" stroke="#2378D1"/>
<path d="M51.568 34.16C50.576 34.16 49.7333 33.9893 49.04 33.648C48.3573 33.296 47.8347 32.8 47.472 32.16C47.1093 31.5093 46.9067 30.7307 46.864 29.824C46.8533 29.3867 46.848 28.9173 46.848 28.416C46.848 27.9147 46.8533 27.4347 46.864 26.976C46.9067 26.08 47.1093 25.3067 47.472 24.656C47.8453 24.0053 48.3733 23.5093 49.056 23.168C49.7493 22.816 50.5867 22.64 51.568 22.64C52.2933 22.64 52.944 22.736 53.52 22.928C54.096 23.12 54.5867 23.3867 54.992 23.728C55.3973 24.0587 55.712 24.448 55.936 24.896C56.16 25.344 56.2773 25.8293 56.288 26.352C56.2987 26.448 56.2667 26.528 56.192 26.592C56.128 26.656 56.048 26.688 55.952 26.688H54.432C54.3147 26.688 54.2187 26.6613 54.144 26.608C54.0693 26.544 54.016 26.4427 53.984 26.304C53.8133 25.6 53.52 25.12 53.104 24.864C52.688 24.608 52.1707 24.48 51.552 24.48C50.8373 24.48 50.2667 24.6827 49.84 25.088C49.4133 25.4827 49.184 26.1387 49.152 27.056C49.12 27.9307 49.12 28.8267 49.152 29.744C49.184 30.6613 49.4133 31.3227 49.84 31.728C50.2667 32.1227 50.8373 32.32 51.552 32.32C52.1707 32.32 52.688 32.192 53.104 31.936C53.52 31.6693 53.8133 31.1893 53.984 30.496C54.016 30.3467 54.0693 30.2453 54.144 30.192C54.2187 30.1387 54.3147 30.112 54.432 30.112H55.952C56.048 30.112 56.128 30.144 56.192 30.208C56.2667 30.272 56.2987 30.352 56.288 30.448C56.2773 30.9707 56.16 31.456 55.936 31.904C55.712 32.352 55.3973 32.7467 54.992 33.088C54.5867 33.4187 54.096 33.68 53.52 33.872C52.944 34.064 52.2933 34.16 51.568 34.16ZM57.3725 34C57.2872 34 57.2072 33.968 57.1325 33.904C57.0685 33.84 57.0365 33.76 57.0365 33.664C57.0365 33.6213 57.0472 33.5733 57.0685 33.52L60.9245 23.2C60.9565 23.0933 61.0152 23.0027 61.1005 22.928C61.1965 22.8427 61.3245 22.8 61.4845 22.8H63.2285C63.3885 22.8 63.5112 22.8427 63.5965 22.928C63.6818 23.0027 63.7458 23.0933 63.7885 23.2L67.6445 33.52C67.6552 33.5733 67.6605 33.6213 67.6605 33.664C67.6605 33.76 67.6285 33.84 67.5645 33.904C67.5005 33.968 67.4258 34 67.3405 34H65.9485C65.7992 34 65.6872 33.968 65.6125 33.904C65.5485 33.8293 65.5058 33.76 65.4845 33.696L64.7325 31.744H59.9805L59.2285 33.696C59.2072 33.76 59.1592 33.8293 59.0845 33.904C59.0205 33.968 58.9138 34 58.7645 34H57.3725ZM60.5405 29.904H64.1725L62.3485 24.96L60.5405 29.904ZM69.5383 34C69.4316 34 69.3409 33.9627 69.2663 33.888C69.1916 33.8133 69.1543 33.7227 69.1543 33.616V23.2C69.1543 23.0827 69.1916 22.9867 69.2663 22.912C69.3409 22.8373 69.4316 22.8 69.5383 22.8H70.7703C70.9196 22.8 71.0263 22.8373 71.0903 22.912C71.1649 22.976 71.2129 23.024 71.2343 23.056L75.8423 30.224V23.2C75.8423 23.0827 75.8743 22.9867 75.9383 22.912C76.0129 22.8373 76.1089 22.8 76.2263 22.8H77.5703C77.6876 22.8 77.7836 22.8373 77.8583 22.912C77.9329 22.9867 77.9703 23.0827 77.9703 23.2V33.6C77.9703 33.7173 77.9329 33.8133 77.8583 33.888C77.7836 33.9627 77.6929 34 77.5863 34H76.3383C76.1889 34 76.0823 33.9627 76.0183 33.888C75.9543 33.8133 75.9063 33.7653 75.8743 33.744L71.2823 26.736V33.616C71.2823 33.7227 71.2449 33.8133 71.1703 33.888C71.0956 33.9627 70.9996 34 70.8823 34H69.5383ZM84.7868 34.16C83.7948 34.16 82.9521 33.9893 82.2588 33.648C81.5761 33.296 81.0534 32.8 80.6908 32.16C80.3281 31.5093 80.1254 30.7307 80.0828 29.824C80.0721 29.3867 80.0668 28.9173 80.0668 28.416C80.0668 27.9147 80.0721 27.4347 80.0828 26.976C80.1254 26.08 80.3281 25.3067 80.6908 24.656C81.0641 24.0053 81.5921 23.5093 82.2748 23.168C82.9681 22.816 83.8054 22.64 84.7868 22.64C85.5121 22.64 86.1628 22.736 86.7388 22.928C87.3148 23.12 87.8054 23.3867 88.2108 23.728C88.6161 24.0587 88.9308 24.448 89.1548 24.896C89.3788 25.344 89.4961 25.8293 89.5068 26.352C89.5174 26.448 89.4854 26.528 89.4108 26.592C89.3468 26.656 89.2668 26.688 89.1708 26.688H87.6508C87.5334 26.688 87.4374 26.6613 87.3628 26.608C87.2881 26.544 87.2348 26.4427 87.2028 26.304C87.0321 25.6 86.7388 25.12 86.3228 24.864C85.9068 24.608 85.3894 24.48 84.7708 24.48C84.0561 24.48 83.4854 24.6827 83.0588 25.088C82.6321 25.4827 82.4028 26.1387 82.3708 27.056C82.3388 27.9307 82.3388 28.8267 82.3708 29.744C82.4028 30.6613 82.6321 31.3227 83.0588 31.728C83.4854 32.1227 84.0561 32.32 84.7708 32.32C85.3894 32.32 85.9068 32.192 86.3228 31.936C86.7388 31.6693 87.0321 31.1893 87.2028 30.496C87.2348 30.3467 87.2881 30.2453 87.3628 30.192C87.4374 30.1387 87.5334 30.112 87.6508 30.112H89.1708C89.2668 30.112 89.3468 30.144 89.4108 30.208C89.4854 30.272 89.5174 30.352 89.5068 30.448C89.4961 30.9707 89.3788 31.456 89.1548 31.904C88.9308 32.352 88.6161 32.7467 88.2108 33.088C87.8054 33.4187 87.3148 33.68 86.7388 33.872C86.1628 34.064 85.5121 34.16 84.7868 34.16ZM91.7883 34C91.6816 34 91.5909 33.9627 91.5163 33.888C91.4416 33.8133 91.4043 33.7227 91.4043 33.616V23.2C91.4043 23.0827 91.4416 22.9867 91.5163 22.912C91.5909 22.8373 91.6816 22.8 91.7883 22.8H98.8283C98.9456 22.8 99.0416 22.8373 99.1163 22.912C99.1909 22.9867 99.2283 23.0827 99.2283 23.2V24.256C99.2283 24.3627 99.1909 24.4533 99.1163 24.528C99.0416 24.6027 98.9456 24.64 98.8283 24.64H93.5643V27.472H98.4763C98.5936 27.472 98.6896 27.5093 98.7643 27.584C98.8389 27.648 98.8763 27.7387 98.8763 27.856V28.848C98.8763 28.9653 98.8389 29.0613 98.7643 29.136C98.6896 29.2 98.5936 29.232 98.4763 29.232H93.5643V32.16H98.9563C99.0736 32.16 99.1696 32.1973 99.2443 32.272C99.3189 32.3467 99.3563 32.4427 99.3563 32.56V33.616C99.3563 33.7227 99.3189 33.8133 99.2443 33.888C99.1696 33.9627 99.0736 34 98.9563 34H91.7883ZM101.741 34C101.635 34 101.544 33.9627 101.469 33.888C101.395 33.8133 101.357 33.7227 101.357 33.616V23.184C101.357 23.0773 101.395 22.9867 101.469 22.912C101.544 22.8373 101.635 22.8 101.741 22.8H103.229C103.336 22.8 103.427 22.8373 103.501 22.912C103.576 22.9867 103.613 23.0773 103.613 23.184V32.096H108.685C108.803 32.096 108.899 32.1333 108.973 32.208C109.048 32.2827 109.085 32.3787 109.085 32.496V33.616C109.085 33.7227 109.048 33.8133 108.973 33.888C108.899 33.9627 108.803 34 108.685 34H101.741Z" fill="#2378D1"/>
</g>
</g>
<defs>
<clipPath id="clip0_0_1830">
<rect width="156" height="56" fill="white"/>
</clipPath>
</defs>
</svg>
