<svg width="341" height="56" viewBox="0 0 341 56" fill="none" xmlns="http://www.w3.org/2000/svg">
<g style="mix-blend-mode:multiply" clip-path="url(#clip0_0_1866)">
<g filter="url(#filter0_d_0_1866)">
<path d="M0.5 10C0.5 4.75329 4.75329 0.5 9.99999 0.5H331C336.247 0.5 340.5 4.75329 340.5 10V46C340.5 51.2467 336.247 55.5 331 55.5H10C4.75329 55.5 0.5 51.2467 0.5 46V10Z" stroke="#2378D1"/>
</g>
<g clip-path="url(#clip1_0_1866)">
<mask id="mask0_0_1866" style="mask-type:luminance" maskUnits="userSpaceOnUse" x="104" y="17" width="134" height="22">
<path d="M104.237 17V39H237.237V17H104.237Z" fill="white"/>
</mask>
<g mask="url(#mask0_0_1866)">
<path d="M110.015 34.18C108.899 34.18 107.963 34.018 107.207 33.694C106.463 33.358 105.893 32.926 105.497 32.398C105.113 31.858 104.909 31.294 104.885 30.706C104.885 30.598 104.921 30.508 104.993 30.436C105.065 30.364 105.155 30.328 105.263 30.328H106.865C107.021 30.328 107.135 30.364 107.207 30.436C107.291 30.496 107.363 30.574 107.423 30.67C107.495 30.898 107.633 31.126 107.837 31.354C108.041 31.57 108.317 31.75 108.665 31.894C109.025 32.038 109.475 32.11 110.015 32.11C110.879 32.11 111.521 31.966 111.941 31.678C112.373 31.39 112.589 31 112.589 30.508C112.589 30.16 112.475 29.884 112.247 29.68C112.019 29.464 111.665 29.272 111.185 29.104C110.717 28.924 110.093 28.738 109.313 28.546C108.413 28.33 107.657 28.072 107.045 27.772C106.445 27.46 105.989 27.07 105.677 26.602C105.377 26.134 105.227 25.54 105.227 24.82C105.227 24.124 105.413 23.506 105.785 22.966C106.169 22.426 106.709 22 107.405 21.688C108.113 21.376 108.953 21.22 109.925 21.22C110.705 21.22 111.395 21.328 111.995 21.544C112.595 21.748 113.093 22.024 113.489 22.372C113.885 22.708 114.185 23.074 114.389 23.47C114.605 23.854 114.719 24.232 114.731 24.604C114.731 24.7 114.695 24.79 114.623 24.874C114.563 24.946 114.473 24.982 114.353 24.982H112.679C112.583 24.982 112.487 24.958 112.391 24.91C112.295 24.862 112.217 24.772 112.157 24.64C112.085 24.268 111.851 23.95 111.455 23.686C111.059 23.422 110.549 23.29 109.925 23.29C109.277 23.29 108.755 23.41 108.359 23.65C107.963 23.89 107.765 24.262 107.765 24.766C107.765 25.102 107.861 25.384 108.053 25.612C108.257 25.828 108.575 26.02 109.007 26.188C109.451 26.356 110.033 26.536 110.753 26.728C111.773 26.956 112.607 27.22 113.255 27.52C113.903 27.82 114.377 28.204 114.677 28.672C114.977 29.128 115.127 29.71 115.127 30.418C115.127 31.21 114.911 31.888 114.479 32.452C114.059 33.004 113.465 33.43 112.697 33.73C111.929 34.03 111.035 34.18 110.015 34.18ZM116.223 34C116.127 34 116.037 33.964 115.953 33.892C115.881 33.82 115.845 33.73 115.845 33.622C115.845 33.574 115.857 33.52 115.881 33.46L120.219 21.85C120.255 21.73 120.321 21.628 120.417 21.544C120.525 21.448 120.669 21.4 120.849 21.4H122.811C122.991 21.4 123.129 21.448 123.225 21.544C123.321 21.628 123.393 21.73 123.441 21.85L127.779 33.46C127.791 33.52 127.797 33.574 127.797 33.622C127.797 33.73 127.761 33.82 127.689 33.892C127.617 33.964 127.533 34 127.437 34H125.871C125.703 34 125.577 33.964 125.493 33.892C125.421 33.808 125.373 33.73 125.349 33.658L124.503 31.462H119.157L118.311 33.658C118.287 33.73 118.233 33.808 118.149 33.892C118.077 33.964 117.957 34 117.789 34H116.223ZM119.787 29.392H123.873L121.821 23.83L119.787 29.392ZM132.218 34C132.026 34 131.876 33.952 131.768 33.856C131.66 33.76 131.582 33.64 131.534 33.496L127.682 21.94C127.658 21.88 127.646 21.826 127.646 21.778C127.646 21.67 127.682 21.58 127.754 21.508C127.826 21.436 127.916 21.4 128.024 21.4H129.608C129.776 21.4 129.902 21.448 129.986 21.544C130.082 21.628 130.142 21.712 130.166 21.796L133.208 31.066L136.232 21.796C136.268 21.712 136.328 21.628 136.412 21.544C136.508 21.448 136.64 21.4 136.808 21.4H138.392C138.488 21.4 138.572 21.436 138.644 21.508C138.728 21.58 138.77 21.67 138.77 21.778C138.77 21.826 138.758 21.88 138.734 21.94L134.882 33.496C134.834 33.64 134.756 33.76 134.648 33.856C134.54 33.952 134.39 34 134.198 34H132.218ZM141.107 34C140.987 34 140.885 33.958 140.801 33.874C140.717 33.79 140.675 33.688 140.675 33.568V21.85C140.675 21.718 140.717 21.61 140.801 21.526C140.885 21.442 140.987 21.4 141.107 21.4H149.027C149.159 21.4 149.267 21.442 149.351 21.526C149.435 21.61 149.477 21.718 149.477 21.85V23.038C149.477 23.158 149.435 23.26 149.351 23.344C149.267 23.428 149.159 23.47 149.027 23.47H143.105V26.656H148.631C148.763 26.656 148.871 26.698 148.955 26.782C149.039 26.854 149.081 26.956 149.081 27.088V28.204C149.081 28.336 149.039 28.444 148.955 28.528C148.871 28.6 148.763 28.636 148.631 28.636H143.105V31.93H149.171C149.303 31.93 149.411 31.972 149.495 32.056C149.579 32.14 149.621 32.248 149.621 32.38V33.568C149.621 33.688 149.579 33.79 149.495 33.874C149.411 33.958 149.303 34 149.171 34H141.107ZM152.304 34C152.184 34 152.082 33.958 151.998 33.874C151.914 33.79 151.872 33.688 151.872 33.568V21.85C151.872 21.718 151.914 21.61 151.998 21.526C152.082 21.442 152.184 21.4 152.304 21.4H156.696C157.908 21.4 158.904 21.586 159.684 21.958C160.476 22.33 161.07 22.882 161.466 23.614C161.874 24.346 162.084 25.24 162.096 26.296C162.12 26.824 162.132 27.292 162.132 27.7C162.132 28.108 162.12 28.57 162.096 29.086C162.072 30.202 161.868 31.126 161.484 31.858C161.1 32.578 160.518 33.118 159.738 33.478C158.97 33.826 157.986 34 156.786 34H152.304ZM154.374 31.93H156.696C157.368 31.93 157.914 31.834 158.334 31.642C158.754 31.45 159.06 31.144 159.252 30.724C159.456 30.292 159.564 29.728 159.576 29.032C159.588 28.672 159.594 28.36 159.594 28.096C159.606 27.82 159.606 27.55 159.594 27.286C159.594 27.01 159.588 26.698 159.576 26.35C159.552 25.366 159.306 24.64 158.838 24.172C158.37 23.704 157.626 23.47 156.606 23.47H154.374V31.93ZM171.406 34C171.286 34 171.184 33.958 171.1 33.874C171.016 33.79 170.974 33.688 170.974 33.568V23.614H167.644C167.524 23.614 167.422 23.572 167.338 23.488C167.254 23.404 167.212 23.302 167.212 23.182V21.85C167.212 21.718 167.254 21.61 167.338 21.526C167.422 21.442 167.524 21.4 167.644 21.4H176.824C176.956 21.4 177.064 21.442 177.148 21.526C177.232 21.61 177.274 21.718 177.274 21.85V23.182C177.274 23.302 177.232 23.404 177.148 23.488C177.064 23.572 176.956 23.614 176.824 23.614H173.512V33.568C173.512 33.688 173.47 33.79 173.386 33.874C173.302 33.958 173.194 34 173.062 34H171.406ZM177.008 34C176.912 34 176.822 33.964 176.738 33.892C176.666 33.82 176.63 33.73 176.63 33.622C176.63 33.574 176.642 33.52 176.666 33.46L181.004 21.85C181.04 21.73 181.106 21.628 181.202 21.544C181.31 21.448 181.454 21.4 181.634 21.4H183.596C183.776 21.4 183.914 21.448 184.01 21.544C184.106 21.628 184.178 21.73 184.226 21.85L188.564 33.46C188.576 33.52 188.582 33.574 188.582 33.622C188.582 33.73 188.546 33.82 188.474 33.892C188.402 33.964 188.318 34 188.222 34H186.656C186.488 34 186.362 33.964 186.278 33.892C186.206 33.808 186.158 33.73 186.134 33.658L185.288 31.462H179.942L179.096 33.658C179.072 33.73 179.018 33.808 178.934 33.892C178.862 33.964 178.742 34 178.574 34H177.008ZM180.572 29.392H184.658L182.606 23.83L180.572 29.392ZM190.694 34C190.574 34 190.472 33.958 190.388 33.874C190.304 33.79 190.262 33.688 190.262 33.568V21.832C190.262 21.712 190.304 21.61 190.388 21.526C190.472 21.442 190.574 21.4 190.694 21.4H192.368C192.488 21.4 192.59 21.442 192.674 21.526C192.758 21.61 192.8 21.712 192.8 21.832V31.858H198.506C198.638 31.858 198.746 31.9 198.83 31.984C198.914 32.068 198.956 32.176 198.956 32.308V33.568C198.956 33.688 198.914 33.79 198.83 33.874C198.746 33.958 198.638 34 198.506 34H190.694ZM201.136 34C201.016 34 200.914 33.958 200.83 33.874C200.746 33.79 200.704 33.688 200.704 33.568V21.85C200.704 21.718 200.746 21.61 200.83 21.526C200.914 21.442 201.016 21.4 201.136 21.4H209.056C209.188 21.4 209.296 21.442 209.38 21.526C209.464 21.61 209.506 21.718 209.506 21.85V23.038C209.506 23.158 209.464 23.26 209.38 23.344C209.296 23.428 209.188 23.47 209.056 23.47H203.134V26.656H208.66C208.792 26.656 208.9 26.698 208.984 26.782C209.068 26.854 209.11 26.956 209.11 27.088V28.204C209.11 28.336 209.068 28.444 208.984 28.528C208.9 28.6 208.792 28.636 208.66 28.636H203.134V31.93H209.2C209.332 31.93 209.44 31.972 209.524 32.056C209.608 32.14 209.65 32.248 209.65 32.38V33.568C209.65 33.688 209.608 33.79 209.524 33.874C209.44 33.958 209.332 34 209.2 34H201.136ZM212.333 34C212.213 34 212.111 33.958 212.027 33.874C211.943 33.79 211.901 33.688 211.901 33.568V21.85C211.901 21.718 211.943 21.61 212.027 21.526C212.111 21.442 212.213 21.4 212.333 21.4H213.719C213.887 21.4 214.007 21.442 214.079 21.526C214.163 21.598 214.217 21.652 214.241 21.688L219.425 29.752V21.85C219.425 21.718 219.461 21.61 219.533 21.526C219.617 21.442 219.725 21.4 219.857 21.4H221.369C221.501 21.4 221.609 21.442 221.693 21.526C221.777 21.61 221.819 21.718 221.819 21.85V33.55C221.819 33.682 221.777 33.79 221.693 33.874C221.609 33.958 221.507 34 221.387 34H219.983C219.815 34 219.695 33.958 219.623 33.874C219.551 33.79 219.497 33.736 219.461 33.712L214.295 25.828V33.568C214.295 33.688 214.253 33.79 214.169 33.874C214.085 33.958 213.977 34 213.845 34H212.333ZM227.832 34C227.712 34 227.61 33.958 227.526 33.874C227.442 33.79 227.4 33.688 227.4 33.568V23.614H224.07C223.95 23.614 223.848 23.572 223.764 23.488C223.68 23.404 223.638 23.302 223.638 23.182V21.85C223.638 21.718 223.68 21.61 223.764 21.526C223.848 21.442 223.95 21.4 224.07 21.4H233.25C233.382 21.4 233.49 21.442 233.574 21.526C233.658 21.61 233.7 21.718 233.7 21.85V23.182C233.7 23.302 233.658 23.404 233.574 23.488C233.49 23.572 233.382 23.614 233.25 23.614H229.938V33.568C229.938 33.688 229.896 33.79 229.812 33.874C229.728 33.958 229.62 34 229.488 34H227.832Z" fill="#2378D1"/>
</g>
</g>
</g>
<defs>
<filter id="filter0_d_0_1866" x="-16" y="-12" width="373" height="88" filterUnits="userSpaceOnUse" color-interpolation-filters="sRGB">
<feFlood flood-opacity="0" result="BackgroundImageFix"/>
<feColorMatrix in="SourceAlpha" type="matrix" values="0 0 0 0 0 0 0 0 0 0 0 0 0 0 0 0 0 0 127 0" result="hardAlpha"/>
<feOffset dy="4"/>
<feGaussianBlur stdDeviation="8"/>
<feColorMatrix type="matrix" values="0 0 0 0 0.235129 0 0 0 0 0.276183 0 0 0 0 0 0 0 0 0.1 0"/>
<feBlend mode="normal" in2="BackgroundImageFix" result="effect1_dropShadow_0_1866"/>
<feBlend mode="normal" in="SourceGraphic" in2="effect1_dropShadow_0_1866" result="shape"/>
</filter>
<clipPath id="clip0_0_1866">
<rect width="341" height="56" fill="white"/>
</clipPath>
<clipPath id="clip1_0_1866">
<rect width="133" height="22" fill="white" transform="translate(104.237 17)"/>
</clipPath>
</defs>
</svg>
